<?xml version="1.0" encoding="UTF-8" standalone="no"?>
<!-- Created with Inkscape (http://www.inkscape.org/) -->

<svg
   xmlns:dc="http://purl.org/dc/elements/1.1/"
   xmlns:cc="http://creativecommons.org/ns#"
   xmlns:rdf="http://www.w3.org/1999/02/22-rdf-syntax-ns#"
   xmlns:svg="http://www.w3.org/2000/svg"
   xmlns="http://www.w3.org/2000/svg"
   xmlns:sodipodi="http://sodipodi.sourceforge.net/DTD/sodipodi-0.dtd"
   xmlns:inkscape="http://www.inkscape.org/namespaces/inkscape"
   id="svg2985"
   version="1.1"
   inkscape:version="0.48.4 r9939"
   width="240"
   height="87"
   preserveAspectRatio="xMinYMin meet"
   viewBox="0 0 400 150"
   xml:space="preserve"
   sodipodi:docname="HFHSovalT.svg"><metadata
     id="metadata2991"><rdf:RDF><cc:Work
         rdf:about=""><dc:format>image/svg+xml</dc:format><dc:type
           rdf:resource="http://purl.org/dc/dcmitype/StillImage" /><dc:title /></cc:Work></rdf:RDF></metadata><defs
     id="defs2989" /><sodipodi:namedview
     pagecolor="#ffffff"
     bordercolor="#666666"
     borderopacity="1"
     objecttolerance="10"
     gridtolerance="10"
     guidetolerance="10"
     inkscape:pageopacity="0"
     inkscape:pageshadow="2"
     inkscape:window-width="1215"
     inkscape:window-height="1002"
     id="namedview2987"
     showgrid="false"
     inkscape:zoom="3.409826"
     inkscape:cx="93.408219"
     inkscape:cy="29.563344"
     inkscape:window-x="57"
     inkscape:window-y="-8"
     inkscape:window-maximized="1"
     inkscape:current-layer="g2995"
     fit-margin-top="0"
     fit-margin-left="0"
     fit-margin-right="0"
     fit-margin-bottom="0" /><g
     id="g2993"
     inkscape:groupmode="layer"
     inkscape:label="ink_ext_XXXXXX"
     transform="matrix(1.25,0,0,-1.25,-80.803909,166.98474)"><g
       id="g2995"
       transform="scale(0.1,0.1)"><rect
         style="fill:none;stroke:none"
         id="rect3789"
         width="451.24423"
         height="225.62212"
         x="-0.41474655"
         y="0.20737328"
         transform="matrix(8,0,0,-8,0,1800)" /><path
         d="m 2582.199,1135.8973 c -145.82,-10.62 -188.21,-8.16 -283.66,-82.21 22.2,30.29 19.74,27.78 30.26,41.38 10.07,13.06 13.58,17.96 22.64,28.73 -15.71,0.27 -45.06,0.11 -59.71,0.11 -42.94,-42.94 -93.49,-96.4 -118.37,-118.3701 -30.47,-26.95998 -42.56,-18.48998 -37.28,-6.81998 4.51,9.91998 55.62,53.51008 68.36,76.17008 8.11,14.4 6.76,28.61 3.24,34.87 -25.04,38.31 -78.64,-16.86 -123.56,-54.7 -13.14,-11.03 -37.15,-20.15 -44.74,-5.56 -3.79,13.47 11.38,33.55 25.08,45.33 0.14,0.08 -1.56,-4.92 -1.82,-5.66 -4.13,-10.92 1.12,-18.53 6.58,-18.91 18.3,-1.22 38.97,20.62 41.01,35.04 2.46,17.26 -9.43,18.49 -15.75,18.6 -34.08,0.61 -54.22,-25.19 -76.23,-50.24 29.36,54.46 -22.86,59.67 -55.18,33.46 -42.58,-34.6 -75.93,-71.79 -117.66,-111.12008 -23.69,-22.33996 -47.91,-26.12996 -30.5,-1.36 32.95,39.45008 63.59,74.51008 70.72,84.73008 33.26,47.55 -6.68,51.55 -43.44,32.23 -28.91,-15.17 -59.71,-42.72 -82.51,-66.49 -0.61,-0.65 -6.85,-7.44 -5.12,-5.31 26.26,32.59 30.73,48.31 29.19,59.71 -2.93,24.66 -25.18,29.29 -53.44,15.16 -21.72,-10.86 -60.64,-48.69 -94.35,-85.77 -25.86,-28.4801 -73.74,-63.40004 -95.95,-48.13008 -4.34,2.98 -8.97,8.71 -4.34,21.47998 78.4,27.4801 111.52,66.2901 122.14,84.3701 8.14,13.02 7.23,29.5 -2.14,34.92 -37.59,21.74 -119.19,-38.72 -152.1,-105.67 -53.22,-22.07008 -88.74,-32.66008 -149.6,-51.64004 84.8,10.27 143.28,24.51996 146.69,25.52996 -0.47,-15.91996 -2.42,-20.07996 5.88,-29.15997 29.38,-32.09 93.21,5.07001 129.29,41.12995 74.41,74.3401 90.57,93.5001 104.73,83.0301 19.22,-14.23 -68.81,-90.15008 -101.46,-133.13005 17.13,-0.2 40.26,-0.18 55.91,0 46.41,56.08995 65.31,71.42005 110.11,110.23005 42.74,37.02 45.7,26.85 35.52,13.1 -12.33,-17.07 -47.43,-51.2 -65.46,-84.14008 -31.57,-57.70997 45.61,-48.93997 90.88,-4.36 36.51,35.93008 55.24,55.33008 89.84,85.40008 34.84,30.29 37.01,11.23 17.63,-13.42 -27.99,-35.6 -51.71,-69.75008 -82.95,-106.81005 14.67,-0.18 28.05,-0.19 44.44,0 20.35,29.35997 41.45,59.59005 64.26,86.81005 10.94,13.07 15.95,17.44 29.07,28.24 -21.61,-42.99 26.69,-58.6901 58.4,-34.12 25.18,19.51 40.9,37.2 56.14,48.63 18.03,13.52 36.2,6.24 24.49,-10.35 -8.73,-12.24 -38.65,-37.56 -57.76,-60.4401 -14.26,-17.08998 -26.06,-48.56995 -7.83,-57.39995 17.99,-8.72 51.27,7.6 69.83,23.05997 21.63,17.98 53.4,48.24008 93.6,92.71008 0.23,0.24 18,21.3 16.45,18.95 -37.08,-58.06 -33.45,-52.25 -62.53,-94.14008 -32.26,-21.65996 -104.13,-82.54197 -140.18,-116.90897 -66.44,-63.301 -26.06,-97.031 6.84,-83.094 59.29,25.129 148.16,157.873 179.08,202.61297 133.59,89.36008 149.47,98.68008 295.34,107.39008 l -17.54,-30.01 c -153.77,-10.34 -204.71,-54 -229.71,-99.34004 -26.95,-48.94001 -1.56,-120.18401 82.03,-109.61801 87.9,11.082 140.74,130.89797 168.69,179.49805 35.28,3.35 88.97,18.56 128.17,34.9 -31.26,-22.91 -48.33,-47.65 -47.93,-86.01008 0.61,-54.19997 67.59,-60.16997 110.54,-23.12996 33.72,29.10996 53.57,50.07004 88.46,89.54004 43.84,49.67 54.68,25.6 37.52,1.37 -13.87,-19.61 -74.71,-95.28004 -85.23,-109.15005 13.6,0 30.38,-0.19 43.84,0 39.77,55.79995 53.91,78.12005 88.58,107.04005 -26.22,-58.3201 52.44,-47.26 76.36,-14.6 -22.03,-28.32 -34.6,-68.73008 -8.99,-89.16005 35.34,-24.62 80.85,15.50001 108.64,61.23005 -22.86,-42.18004 -11.45,-69.02005 32.72,-75.96005 361.08,-56.771 680.41,-568.458 -1136.84,-573.29 -667.71,-1.77 -897.075,85.82 -1152.54299,164.179 139.254,-81.168 464.51299,-218.277 1152.54299,-215.84 1873.67,6.59 1553.51,566.551 1229.31,643.911 -42.71,10.20001 -61.89,17.51997 -78.22,20.58997 -29.85,5.59 -0.61,46.32008 22.92,86.21008 28.25,47.9 68.89,115.47 95.73,162.66 l -42.94,-0.05 c -35.29,-57.73 -60.67,-100.56 -96.62,-161.22 8.72,23.32 5.82,42.42 -10.29,51.42 -16.05,8.99 -35.28,5.59 -52,-1.36 -16.33,-6.8 -28.13,-17.01 -41.32,-29.13 -12.58,-11.41 -21.53,-21.5 -37.86,-35.4 -10.11,-8.59 -32.75,-15.35 -41.53,-5.29 -5.21,5.95 0.77,33.51 23.31,47.58 -4.98,-6.67 -4.02,-21.1 0.5,-23.33 8.16,-3.96 16.05,-1.56 22.54,3.63 8.04,6.49 30.42,26.36 21.74,42.11 -7.26,13.2 -37.96,2 -49.87,-5.38 -14.03,-8.66 -29.24,-23.11 -41.09,-38.18 12.62,26.13 14.25,46.16 -9.06,49.11 -36.24,4.55 -55.01,-22.98 -91.75,-57.81 0,0 -4.93,-5.97 -4.37,-4.79 13.64,27.25 -1.84,55.83 -14.27,60.66 -17.54,-19.02 -29.67,-33.03 -46.91,-50.36 l 3.76,-2.95 c 10.9,11.41 16.33,17.59 26.16,18.73 12.86,1.44 22.38,-12.66 11.24,-34.51 -6.15,-12.14 -36.12,-57.28008 -70.34,-71.59008 -26.39,-11.02996 -51.49,0.63 -47.36,36.19008 3.36,28.54 28.3,73.23 89.86,92.26 l 7.32,14.97 c -25.39,2.74 -51.44,-17.68 -111.32,-31.01 -11.36,-2.56 -49.32,-15.12 -88.18,-17.17 1.73,3.23 20.69,30.5 20.69,30.5 40.14,3.29 54.74,9.8 90.18,17.64 28.35,6.26 52.96,14.75 86.39,32.21 -35.39,-5.57 -43.67,-5.27 -78.94,-9.21 -36.24,-4.05 -60.16,-8.25 -81.31,-9.07 49.27,68.22 72.86,81.61 136.88,126.62 -86.89,-28.42 -130,-72.98 -170.31,-128.52 m -1318.397,-71.17 c 3.223,6.02 15.207,23.98 18.117,29.64 l 51.81,5.75 c -3.42,-5.97 -11.62,-23.96 -14.64,-29.67 -9.89,-0.37 -46.513,-4.95 -55.287,-5.72 z M 993.39602,935.72725 c 2.297,44.20997 91.56198,80.14005 209.77698,89.23005 C 1127.829,895.93725 989.03701,851.23025 993.39602,935.72725 z M 1501.449,1258.4973 c 118.05,83.6 88.29,-11.83 22.6,-64.82 -45.77,-36.92 -85.99,-41.72 -123.31,-49.07 56.25,81.33 78.99,98.51 100.71,113.89 z m -231.12,-124.75 c -113.019,-13.9 -144.132,-18.36 -245.894,-45.82 -472.92199,-127.60005 -730.59379,-661.66205 972.104,-669.75105 609.65,-2.899 1120.65,84.191 1347.03,200.32 -370.31,-76.117 -800.57,-142.438 -1344.04,-142.438 -1701.22299,0 -1294.88299,470.489 -1001.83598,563.11905 72.04298,22.78 110.91798,35.1 246.06998,53.15 m 0.309,0.99 c 0,0 -16.465,-25.26 -21.946,-32.75 -166.566,-22.93 -267.81599,-54.4901 -259.35899,-141.89005 4.719,-48.689 69.22999,-78.111 149.79699,-34.263 60.051,32.703 103.426,81.68301 135.687,144.31305 10.055,1.27 50.248,5.69 59.048,6.48 -95.864,-190.05105 35.88,-201.55505 109.72,-139.09405 55.01,46.544 61.23,121.38405 11.33,134.32405 -43.78,11.4 -77.04,-25.6501 -81.51,-55.53008 29.12,36.46008 42.85,35.10998 56.05,31.16998 30.61,-9.11998 17.02,-68.82995 -12.04,-91.86995 -48.98,-38.777 -69.76,-14.559 -69.76,19.7 0,33.58001 19.09,72.68995 35.57,106.05005 43.36,5.14 118.32,27.62 189.9,82.6 -83.35,-33.35 -137.67,-44.39 -180.42,-48.01 4.09,7.89 10.69,22.43 14.36,29.03 98.6,10.02 189.48,61.08 234.76,152.58 22.27,45.01 -7.03,89.03 -86.5,47.28 -51.93,-27.3 -95.1,-54.89 -165.96,-163.08 -9.89,-0.73 -58.86,-5.15 -58.86,-5.15 59.07,88.21 51.42,90.14 141.25,182.86 -11.47,-3.72 -29.37,-9.67 -40.68,-14.09 -26.2,-10.27 -37.54,-14.43 -84.19,-36.4 -13.16,-6.18 -45.38,-18.7 -33.11,4.54 23.1,43.82 -23.801,51.15 -49.114,53.64 -49.992,4.89 -136.969,-3.25 -200.355,-44.64 -64.67999,-42.27 -59.39499,-118.35 -12.36,-132.27 52.184,-15.43 112.949,19.47 146.059,60.15 -143.094,-110.93 -233.08599,25.46 -68.852,78 34.129,10.93 77.731,17.62 99.047,15.33 15.969,-1.69 32.668,-3.17 38.762,-7.74 16.144,-12.1 2.816,-26.68 2.816,-26.68 -3.668,-7.08 -15.629,-26.7 4.551,-37.4 40.436,-21.43 90.486,24.69 127.506,41.56 -44.96,-44.96 -52.98,-57.4 -104.94,-138.32 l -26.257,-40.43 z M 2430.619,913.37725 c -63.13,-44.1 -106.41,3.26 -89.02,48.99 13.37,33.46997 72.47,74.57005 187.82,82.46005 -30.98,-57.52008 -47.75,-95.82005 -98.8,-131.45005 z m 248.92,409.50005 c -55.18,5.37 -126.07,12.43 -176.13,-18.42 -34.49,-21.19 -52.22,-41.84 -54.51,-79.08 -0.72,-12.86 5.82,-44.02 28.4,-56.29 22.2,-12.05 47.08,-6.56 69.39,2.46 40.2,16.21 67.1,47.61 104.78,91.43 -36.72,-33.66 -98.3,-80.55 -144.69,-63.14 -47.87,17.96 -25.56,121.39 113.94,100.17 112.74,-17.14 206.1,-35.57 357.12,24.94 -75.19,-10.43 -173.89,-14.18 -298.3,-2.07 z m -552.7,-428.58005 c 49.25,40.38 65.67,52.25 78.73,65.31 -11.75,-17.58 -105.24,-155.31 -133.54,-142.256 -9.33,4.309 4.38,35.559 54.81,76.946 z m 29.74,-224.981 19.02,37.41 3.43,-1.507 c 0,-1.864 0.37,-3.442 1.41,-4.981 6.89,-10.199 41.11,-19.762 62.92,-19.762 15.21,0 55.69,3.403 55.69,22.219 0,37.695 -140.4,-9.547 -140.4,66.152 0,25.665 26.61,51.309 83.98,51.309 48.09,0 71.23,-15.461 83.03,-15.461 3.41,0 5.53,0.625 6.88,1.856 l 4.14,-2.469 -23.81,-38.633 -3.47,1.25 c -0.34,2.773 -1.4,5.234 -2.75,7.109 -7.26,9.59 -36.34,19.766 -62.95,19.766 -20.41,0 -45.65,-5.266 -45.65,-18.859 0,-39.239 140.37,6.496 140.37,-67.668 0,-42.641 -57.04,-53.141 -94.4,-53.141 -53.22,0 -67.76,15.41 -78.13,15.41 -1.7,0 -3.47,-1.199 -4.5,-2.449 l -4.81,2.449 z m -180.76,64.59 0,41.211 c 0,2.898 -2.44,4.363 -5.97,4.363 l 0,4.356 41.77,0 0,-4.356 c -2.43,0 -4.88,-1.465 -4.88,-4.363 l 0,-110.09 c 0,-2.879 2.45,-4.351 4.88,-4.351 l 0,-4.348 -41.77,0 0,4.348 c 3.53,0 5.97,1.472 5.97,4.351 l 0,45.61 -87.37,0 0,-45.61 c 0,-2.879 2.45,-4.351 4.88,-4.351 l 0,-4.348 -40.96,0 0,4.348 c 2.69,0 5.15,1.472 5.15,4.351 l 0,110.09 c 0,2.898 -2.46,4.363 -5.15,4.363 l 0,4.356 40.96,0 0,-4.356 c -2.43,0 -4.88,-1.465 -4.88,-4.363 l 0,-41.211 87.37,0 z m -226.34,-68.879 c 0,-2.879 2.44,-4.351 5.96,-4.351 l 0,-4.348 -41.78,0 0,4.348 c 2.44,0 4.89,1.472 4.89,4.351 l 0,96.535 -44.77,0 c -3.26,0 -7.06,-1.484 -7.06,-5.8 l -4.88,0 0,33.886 4.88,0 c 0,-4.355 3.8,-5.812 7.06,-5.812 l 120.46,0 c 3.26,0 7.05,1.457 7.05,5.812 l 4.9,0 0,-33.886 -4.9,0 c 0,4.316 -3.79,5.8 -7.05,5.8 l -44.76,0 0,-96.535 z m 1412.21,-8.699 0,4.348 c 3.02,0 5.48,1.472 5.48,4.351 l 0,110.598 c 0,2.898 -2.46,3.855 -5.48,3.855 l 0,4.356 50.77,0 0,-4.356 c -1.89,0 -4.36,-0.957 -4.36,-2.918 0,-1.672 1.9,-4.355 3.58,-7.257 l 38.75,-63.016 39.09,62.285 c 2.45,4.129 3.79,6.316 3.79,8.25 0,1.926 -1.34,2.656 -3.52,2.656 l 0,4.356 50.21,0 0,-4.356 c -3.02,0 -5.43,-0.957 -5.43,-3.855 l 0,-110.598 c 0,-2.879 2.41,-4.351 5.43,-4.351 l 0,-4.348 -42.61,0 0,4.348 c 4.87,0 7.33,1.472 7.33,4.351 l 0,80.528 -0.56,0 -54.52,-89.227 -0.83,0 -53.46,89.473 -0.5,0 0,-80.774 c 0,-2.879 2.4,-4.351 7.6,-4.351 l 0,-4.348 -40.76,0 z m -59.78,101.348 -4.86,0 c 0,3.398 -2.73,5.332 -10.28,5.332 l -87.95,0 0,-30.09 53.17,0 c 7.04,0 11.4,0.988 11.4,8.262 l 4.86,0 0,-37.825 -4.86,0 c 0,7.282 -4.36,8.742 -11.4,8.742 l -53.17,0 0,-33.468 90.63,0 c 5.43,0 9.22,2.429 9.22,6.32 l 4.86,0 0,-33.973 -4.86,0 c 0,4.852 -3.79,5.352 -9.22,5.352 l -126.48,0 0,4.348 c 2.46,0 4.92,1.472 4.92,4.351 l 0,110.09 c 0,2.898 -2.46,4.363 -4.92,4.363 l 0,4.356 123.8,0 c 7.55,0 10.28,2.461 10.28,5.812 l 4.86,0 0,-31.972 z m -246.96,-92.649 c 0,-2.879 2.46,-4.351 5.98,-4.351 l 0,-4.348 -41.83,0 0,4.348 c 2.46,0 4.92,1.472 4.92,4.351 l 0,96.535 -44.78,0 c -3.24,0 -7.05,-1.484 -7.05,-5.8 l -4.92,0 0,33.886 4.92,0 c 0,-4.355 3.81,-5.812 7.05,-5.812 l 120.44,0 c 3.29,0 7.05,1.457 7.05,5.812 l 4.92,0 0,-33.886 -4.92,0 c 0,4.316 -3.76,5.8 -7.05,5.8 l -44.73,0 0,-96.535 z m -277.45,1.942 14.94,29.359 2.74,-1.231 c 0,-1.449 0.21,-2.679 1.05,-3.878 5.43,-8 32.32,-15.524 49.37,-15.524 11.98,0 43.73,2.684 43.73,17.481 0,29.609 -110.21,-7.528 -110.21,51.882 0,20.098 20.92,40.235 65.92,40.235 37.74,0 55.92,-12.082 65.15,-12.082 2.74,0 4.36,0.48 5.41,1.426 l 3.25,-1.934 -18.67,-30.32 -2.74,0.976 c -0.28,2.196 -1.06,4.141 -2.19,5.586 -5.64,7.547 -28.45,15.516 -49.3,15.516 -16.06,0 -35.85,-4.129 -35.85,-14.785 0,-30.801 110.15,5.089 110.15,-53.098 0,-33.473 -44.72,-41.711 -74.08,-41.711 -41.82,0 -53.18,12.102 -61.35,12.102 -1.33,0 -2.68,-0.942 -3.51,-1.942 l -3.81,1.942 z m -201.11,116.867 56.4,0 0,-4.356 c -3.24,0 -6.76,-0.476 -6.76,-3.633 0,-3.867 23.87,-32.214 33.38,-45.8 l 31.76,39.035 c 2.97,3.887 4.86,5.808 4.86,7.742 0,2.18 -4.35,2.656 -7.32,2.656 l 0,4.356 47.47,0 0,-4.356 c -6.2,0 -8.94,-1.465 -17.89,-12.832 l -46.13,-58.472 0,-43.149 c 0,-2.879 2.46,-4.351 6.21,-4.351 l 0,-4.348 -42.83,0 0,4.348 c 3.25,0 5.71,1.472 5.71,4.351 l 0,43.149 -52.4,65.515 c -2.46,3.133 -8.95,5.789 -12.46,5.789 l 0,4.356 z m -725.75,-132.86 c 0,4.852 -3.78,5.352 -9.22,5.352 l -129.15,0 0,4.348 c 5.7,0 8.14,1.472 8.14,4.351 l 0,110.09 c 0,2.898 -2.44,4.363 -8.14,4.363 l 0,4.356 46.67,0 0,-4.356 c -5.15,0 -7.6,-1.465 -7.6,-4.363 l 0,-96.488 90.08,0 c 5.44,0 9.22,2.429 9.22,6.32 l 4.89,0 0,-33.973 -4.89,0 z m -296.42,54.801 48.3,0 -22.79,45.129 -25.51,-45.129 z m -54.01,-49.449 0,4.348 c 4.62,0.48 7.07,4.589 9.52,9.211 l 50.19,94.332 c 2.44,4.128 4.89,7.988 4.89,10.418 0,3.156 -3.27,4.367 -5.99,4.843 l 0,4.356 45.86,0 0,-4.356 c -2.43,-0.476 -5.71,-1.465 -5.71,-4.843 0,-2.43 1.38,-4.832 3.82,-8.973 l 56.41,-98.695 c 1.93,-3.372 4.9,-4.821 8.96,-6.293 l 0,-4.348 -47.73,0 0,4.348 c 1.35,0 4.34,0.961 4.34,2.921 0,1.43 -0.55,3.661 -2.18,6.29 l -10.31,17.949 -66.2,0 -9.77,-17.207 c -1.64,-3.153 -2.72,-5.832 -2.72,-7.25 0,-1.5 2.46,-2.703 5.15,-2.703 l 0,-4.348 -38.53,0 z m -43.817,101.348 -4.895,0 c 0,3.398 -2.699,5.332 -10.3,5.332 l -87.918,0 0,-30.09 53.195,0 c 7.047,0 11.387,0.988 11.387,8.262 l 4.883,0 0,-37.825 -4.883,0 c 0,7.282 -4.34,8.742 -11.387,8.742 l -53.195,0 0,-33.468 90.644,0 c 5.422,0 9.211,2.429 9.211,6.32 l 4.891,0 0,-33.973 -4.891,0 c 0,4.852 -3.789,5.352 -9.211,5.352 l -126.449,0 0,4.348 c 2.441,0 4.875,1.472 4.875,4.351 l 0,110.09 c 0,2.898 -2.434,4.363 -4.875,4.363 l 0,4.356 123.723,0 c 7.601,0 10.3,2.461 10.3,5.812 l 4.895,0 0,-31.972 z m -239.273,0.32 0,52.539 c 0,3.723 -3.102,5.578 -7.61,5.578 l 0,5.547 53.262,0 0,-5.547 c -3.113,0 -6.234,-1.855 -6.234,-5.578 l 0,-140.297 c 0,-3.691 3.121,-5.551 6.234,-5.551 l 0,-5.57 -53.262,0 0,5.57 c 4.508,0 7.61,1.86 7.61,5.551 l 0,58.082 -111.32499,0 0,-58.082 c 0,-3.691 3.102,-5.551 6.235,-5.551 l 0,-5.57 -52.227,0 0,5.57 c 3.469,0 6.57,1.86 6.57,5.551 l 0,140.297 c 0,3.723 -3.101,5.578 -6.57,5.578 l 0,5.547 52.227,0 0,-5.547 c -3.133,0 -6.235,-1.855 -6.235,-5.578 l 0,-52.539 111.32499,0 z m 2087.7,329.35105 c 11.47,-29.42 -49.09,-92.81008 -57.54,-99.24008 -17.05,-13.06 -29.01,-12.73 -34.88,-4.83 -6.38,8.68 -2.35,28.70008 4.25,42.88008 18.07,38.49 49.27,73.48 77.49,69.38 0,0 8.51,-2.62 10.68,-8.19 z m -1500.98,7.77 c 14.9,8.89 34.24,15.47 33.63,3.76 -0.82,-15.51 -30.38,-39.58 -50.36,-51.72 -10.39,-5.59 -24.7,-13.5 -46,-20.68 13.89,32.57 43.01,56.89 62.73,68.64"
         style="fill:#ffffff;fill-opacity:1;fill-rule:nonzero;stroke:none"
         id="path2997"
         inkscape:connector-curvature="0" /></g></g></svg>